<svg xmlns="http://www.w3.org/2000/svg" xmlns:xlink="http://www.w3.org/1999/xlink" width="22" height="22" viewBox="0 0 22 22">
  <defs>
    <clipPath id="clip-path">
      <path id="Path_29" data-name="Path 29" d="M23.744,11H13.256v4.25h6.037c-.563,2.7-2.916,4.25-6.037,4.25a6.5,6.5,0,1,1,0-13A6.6,6.6,0,0,1,17.4,7.95l3.274-3.2A11.354,11.354,0,0,0,13.256,2,11.1,11.1,0,0,0,2,13,11.1,11.1,0,0,0,13.256,24C18.884,24,24,20,24,13A8.929,8.929,0,0,0,23.744,11Z" transform="translate(-2 -2)" fill="#fff"/>
    </clipPath>
  </defs>
  <g id="glogo" transform="translate(-2 -2)">
    <g id="Group_9" data-name="Group 9" transform="translate(2 2)" clip-path="url(#clip-path)">
      <path id="Path_28" data-name="Path 28" d="M0,24V11l8.7,6.5Z" transform="translate(-1.023 -6.5)" fill="#fff"/>
    </g>
    <g id="Group_10" data-name="Group 10" transform="translate(2 2)" clip-path="url(#clip-path)">
      <path id="Path_30" data-name="Path 30" d="M0,5.5,8.7,12l3.581-3.05L24.558,7V0H0Z" transform="translate(-1.023 -1)" fill="#fff"/>
    </g>
    <g id="Group_11" data-name="Group 11" transform="translate(2 2)" clip-path="url(#clip-path)">
      <path id="Path_32" data-name="Path 32" d="M0,18.5,15.349,7l4.042.5L24.558,0V24H0Z" transform="translate(-1.023 -1)" fill="#fff"/>
    </g>
    <g id="Group_12" data-name="Group 12" transform="translate(2 2)" clip-path="url(#clip-path)">
      <path id="Path_34" data-name="Path 34" d="M30.907,29.5l-15.86-12L13,16l17.907-5Z" transform="translate(-7.372 -6.5)" fill="#fff"/>
    </g>
  </g>
</svg>
